<svg width="65" height="36" viewBox="0 0 65 36" xmlns="http://www.w3.org/2000/svg"><title>mig</title><path d="M29.466 9.395c.972 1.549 1.459 3.693 1.459 6.432v9.83c0 .666-.218 1.223-.653 1.671-.435.448-.986.672-1.651.672-.666 0-1.216-.224-1.651-.672-.436-.448-.653-1.005-.653-1.67v-9.83c0-1.409-.275-2.516-.826-3.322-.55-.807-1.517-1.21-2.899-1.21-1.434 0-2.554.429-3.36 1.286-.806.858-1.21 1.94-1.21 3.245v9.83c0 .666-.217 1.223-.652 1.671-.436.448-.986.672-1.652.672-.665 0-1.216-.224-1.65-.672-.436-.448-.654-1.005-.654-1.67v-9.83c0-1.409-.275-2.516-.825-3.322-.55-.807-1.517-1.21-2.9-1.21-1.433 0-2.553.429-3.36 1.286-.806.858-1.209 1.94-1.209 3.245v9.83c0 .666-.218 1.223-.653 1.671-.435.448-.985.672-1.651.672s-1.216-.224-1.651-.672c-.435-.448-.653-1.005-.653-1.67V9.798c0-.665.218-1.222.653-1.67.435-.448.985-.672 1.651-.672s1.216.224 1.651.672c.435.448.653 1.005.653 1.67v.615c.691-.922 1.568-1.709 2.63-2.362 1.063-.653 2.247-.979 3.552-.979 3.226 0 5.287 1.408 6.183 4.224.589-1.075 1.478-2.048 2.669-2.918 1.19-.87 2.54-1.306 4.05-1.306 2.535 0 4.289.774 5.262 2.323zm10.137 17.933c-.435.448-.985.672-1.651.672s-1.216-.224-1.651-.672c-.435-.448-.653-1.005-.653-1.67V9.798c0-.665.218-1.222.653-1.67.435-.448.985-.672 1.651-.672s1.216.224 1.651.672c.435.448.653 1.005.653 1.67v15.86c0 .665-.218 1.222-.653 1.67zM36.07 4.538c-.358-.282-.537-.781-.537-1.498v-.73c0-.716.192-1.216.576-1.497.384-.282.998-.423 1.843-.423.896 0 1.523.141 1.882.423.358.281.537.78.537 1.497v.73c0 .742-.185 1.248-.557 1.517-.37.269-1.004.403-1.9.403-.87 0-1.485-.14-1.844-.422zm27.572 3.187c.435.435.652.998.652 1.69v17.087c0 3.124-.966 5.434-2.899 6.932-1.933 1.497-4.384 2.246-7.353 2.246-.768 0-1.824-.128-3.168-.384s-2.298-.512-2.861-.768c-1.255-.538-1.882-1.28-1.882-2.227 0-.18.039-.384.115-.615.154-.563.416-.992.788-1.286.37-.294.774-.442 1.21-.442.255 0 .498.039.729.116.102.025.736.262 1.9.71 1.165.448 2.221.672 3.169.672 1.894 0 3.308-.378 4.243-1.133.934-.755 1.401-1.824 1.401-3.206v-1.843c-.563.793-1.414 1.51-2.553 2.15-1.14.64-2.362.96-3.667.96-1.792 0-3.424-.454-4.896-1.363s-2.63-2.17-3.476-3.783c-.844-1.612-1.267-3.443-1.267-5.49 0-2.049.416-3.886 1.248-5.511.832-1.626 1.971-2.893 3.418-3.802 1.446-.909 3.053-1.363 4.819-1.363a8.36 8.36 0 0 1 3.648.806c1.126.538 2.035 1.19 2.726 1.959v-.423c0-.665.218-1.222.653-1.67.435-.448.986-.672 1.651-.672.666 0 1.216.218 1.652.653zm-5.396 14.611c1.088-1.216 1.632-2.746 1.632-4.589 0-1.843-.544-3.379-1.632-4.608-1.088-1.229-2.49-1.843-4.204-1.843-1.716 0-3.11.614-4.186 1.843-1.075 1.229-1.613 2.765-1.613 4.608 0 1.843.538 3.373 1.613 4.589 1.075 1.216 2.47 1.824 4.186 1.824 1.715 0 3.116-.608 4.204-1.824z" fill="#EA527C" fill-rule="evenodd"/></svg>